<svg width="10" height="5" viewBox="0 0 10 5" fill="none" xmlns="http://www.w3.org/2000/svg">
<path d="M9.01531 0.765521L5.26531 4.51552C5.23049 4.55039 5.18913 4.57805 5.1436 4.59692C5.09808 4.61579 5.04928 4.6255 5 4.6255C4.95072 4.6255 4.90192 4.61579 4.8564 4.59692C4.81087 4.57805 4.76952 4.55039 4.73469 4.51552L0.984688 0.765521C0.914323 0.695156 0.874792 0.59972 0.874792 0.500208C0.874792 0.400697 0.914323 0.305261 0.984688 0.234896C1.05505 0.164531 1.15049 0.125 1.25 0.125C1.34951 0.125 1.44495 0.164531 1.51531 0.234896L5 3.72005L8.48469 0.234896C8.51953 0.200054 8.56089 0.172417 8.60641 0.153561C8.65194 0.134705 8.70073 0.125 8.75 0.125C8.79927 0.125 8.84806 0.134705 8.89359 0.153561C8.93911 0.172417 8.98047 0.200054 9.01531 0.234896C9.05015 0.269737 9.07779 0.3111 9.09665 0.356622C9.1155 0.402145 9.12521 0.450935 9.12521 0.500208C9.12521 0.549482 9.1155 0.598272 9.09665 0.643795C9.07779 0.689317 9.05015 0.73068 9.01531 0.765521Z" fill="#06122B"/>
</svg>
