<svg width="410" height="121" viewBox="0 0 410 121" fill="none" xmlns="http://www.w3.org/2000/svg">
<rect width="120.312" height="120.312" rx="18" fill="url(#paint0_linear_3_1373)"/>
<path d="M27.7128 27.7128L60.1562 14.2742L92.5997 27.7128L106.038 60.1562L92.5997 92.5997L60.1562 106.038L27.7128 92.5997L14.2742 60.1562L27.7128 27.7128Z" fill="white" stroke="url(#paint1_linear_3_1373)" stroke-width="6.05"/>
<path d="M38.4621 38.4621L60.5 29.3337L82.5379 38.4621L91.6663 60.5L82.5379 82.5379L60.5 91.6663L38.4621 82.5379L29.3337 60.5L38.4621 38.4621Z" fill="white" stroke="url(#paint2_linear_3_1373)" stroke-width="5.29375"/>
<path d="M174.351 91.0693C168.264 91.0693 163.007 89.7413 158.581 87.0852C154.209 84.3739 150.889 80.6666 148.621 75.9632C146.352 71.2599 145.218 65.9479 145.218 60.0272C145.218 53.2212 146.518 47.3836 149.119 42.5142C151.775 37.6449 155.51 33.9652 160.324 31.4752C165.138 28.9852 170.754 27.7402 177.173 27.7402C183.204 27.7402 189.982 28.5979 197.508 30.3132L196.595 45.7512H188.212L185.971 35.1272C185.417 34.5739 184.366 34.0759 182.817 33.6332C181.267 33.1352 179.248 32.8862 176.758 32.8862C171.335 32.8862 167.074 35.0996 163.976 39.5262C160.877 43.8976 159.328 50.2332 159.328 58.5332C159.328 66.6672 160.656 73.2519 163.312 78.2872C165.968 83.2672 170.007 85.7572 175.43 85.7572C177.643 85.7572 179.718 85.4806 181.655 84.9272C183.591 84.3739 185.058 83.6546 186.054 82.7692V64.9242L177.256 64.0942V58.5332H202.488V64.0942L198.089 64.8412V86.8362C196.927 86.8916 194.824 87.3619 191.781 88.2472C188.239 89.1879 185.196 89.8796 182.651 90.3223C180.161 90.8203 177.394 91.0693 174.351 91.0693ZM205.321 67.1652C205.321 61.9639 206.345 57.5372 208.392 53.8852C210.495 50.2332 213.289 47.4942 216.775 45.6682C220.261 43.7869 224.052 42.8462 228.146 42.8462C235.118 42.8462 240.486 45.0042 244.248 49.3202C248.066 53.5809 249.975 59.3909 249.975 66.7502C249.975 72.0069 248.924 76.4889 246.821 80.1962C244.774 83.8482 242.007 86.5872 238.521 88.4132C235.091 90.1839 231.3 91.0693 227.15 91.0693C220.234 91.0693 214.866 88.9389 211.048 84.6783C207.23 80.3622 205.321 74.5246 205.321 67.1652ZM227.814 85.6742C234.067 85.6742 237.193 79.6429 237.193 67.5802C237.193 61.2722 236.446 56.4859 234.952 53.2212C233.458 49.9012 231.024 48.2413 227.648 48.2413C221.23 48.2413 218.02 54.2726 218.02 66.3352C218.02 72.6432 218.795 77.4572 220.344 80.7772C221.949 84.0419 224.439 85.6742 227.814 85.6742ZM255.03 67.1652C255.03 61.9639 256.054 57.5372 258.101 53.8852C260.204 50.2332 262.998 47.4942 266.484 45.6682C269.97 43.7869 273.761 42.8462 277.855 42.8462C284.827 42.8462 290.195 45.0042 293.957 49.3202C297.775 53.5809 299.684 59.3909 299.684 66.7502C299.684 72.0069 298.633 76.4889 296.53 80.1962C294.483 83.8482 291.716 86.5872 288.23 88.4132C284.8 90.1839 281.009 91.0693 276.859 91.0693C269.943 91.0693 264.575 88.9389 260.757 84.6783C256.939 80.3622 255.03 74.5246 255.03 67.1652ZM277.523 85.6742C283.776 85.6742 286.902 79.6429 286.902 67.5802C286.902 61.2722 286.155 56.4859 284.661 53.2212C283.167 49.9012 280.733 48.2413 277.357 48.2413C270.939 48.2413 267.729 54.2726 267.729 66.3352C267.729 72.6432 268.504 77.4572 270.053 80.7772C271.658 84.0419 274.148 85.6742 277.523 85.6742ZM322.087 91.0693C318.656 91.0693 315.585 90.2669 312.874 88.6622C310.162 87.0022 308.004 84.4569 306.4 81.0262C304.795 77.5956 303.993 73.3072 303.993 68.1612C303.993 63.5132 304.933 59.2802 306.815 55.4622C308.751 51.5889 311.573 48.5179 315.281 46.2492C318.988 43.9806 323.442 42.8462 328.644 42.8462C330.746 42.8462 332.738 43.0676 334.62 43.5102V29.4832L326.486 28.3212V23.7562L343.584 22.0962H343.833L346.157 23.8392V85.0932H350.639V89.8242C346.655 90.6543 343.362 91.0693 340.762 91.0693C338.991 91.0693 337.718 90.7649 336.944 90.1562C336.224 89.6029 335.865 88.4686 335.865 86.7532V84.4292C334.426 86.3659 332.462 87.9706 329.972 89.2432C327.482 90.4606 324.853 91.0693 322.087 91.0693ZM326.403 84.1802C328.229 84.1802 329.833 83.8206 331.217 83.1012C332.655 82.3266 333.79 81.4136 334.62 80.3622V50.1502C334.232 49.5969 333.402 49.1266 332.13 48.7392C330.912 48.3519 329.584 48.1582 328.146 48.1582C324.604 48.1582 321.755 49.7076 319.597 52.8062C317.494 55.8496 316.443 60.7466 316.443 67.4972C316.443 73.1412 317.356 77.3466 319.182 80.1132C321.008 82.8246 323.415 84.1802 326.403 84.1802ZM363.419 83.3502C363.861 84.0142 364.857 84.6506 366.407 85.2592C368.011 85.8126 369.616 86.0892 371.221 86.0892C373.821 86.0892 375.758 85.5636 377.031 84.5122C378.359 83.4056 379.023 81.9669 379.023 80.1962C379.023 78.3702 378.22 76.9039 376.616 75.7972C375.011 74.6352 372.3 73.2242 368.482 71.5642L366.158 70.5682C362.34 68.9636 359.49 67.0269 357.609 64.7582C355.727 62.4896 354.787 59.5569 354.787 55.9602C354.787 53.4702 355.534 51.2569 357.028 49.3202C358.522 47.3282 360.624 45.7789 363.336 44.6722C366.047 43.5656 369.173 43.0122 372.715 43.0122C375.315 43.0122 377.529 43.1782 379.355 43.5102C381.236 43.8422 383.2 44.2849 385.248 44.8382C386.354 45.2256 387.184 45.4469 387.738 45.5022V56.3752H381.181L379.272 50.0672C378.94 49.5139 378.193 49.0159 377.031 48.5732C375.869 48.1306 374.541 47.9092 373.047 47.9092C370.778 47.9092 368.952 48.4072 367.569 49.4032C366.241 50.3439 365.577 51.6719 365.577 53.3872C365.577 54.9366 366.047 56.2369 366.988 57.2882C367.928 58.2842 368.952 59.0589 370.059 59.6122C371.165 60.1656 373.213 61.0786 376.201 62.3512C379.189 63.6239 381.651 64.8412 383.588 66.0032C385.58 67.1652 387.212 68.6869 388.485 70.5682C389.813 72.3942 390.477 74.6352 390.477 77.2912C390.477 81.3859 388.872 84.7059 385.663 87.2512C382.453 89.7966 377.833 91.0693 371.802 91.0693C368.98 91.0693 366.434 90.8203 364.166 90.3223C361.952 89.8242 359.379 89.1602 356.447 88.3302L354.621 87.7492V76.7932H361.51L363.419 83.3502Z" fill="#06122B"/>
<defs>
<linearGradient id="paint0_linear_3_1373" x1="60.1562" y1="0" x2="60.1563" y2="120.312" gradientUnits="userSpaceOnUse">
<stop stop-color="#7DC1FF"/>
<stop offset="1" stop-color="#278CEA"/>
</linearGradient>
<linearGradient id="paint1_linear_3_1373" x1="60.1562" y1="11" x2="60.1562" y2="109.312" gradientUnits="userSpaceOnUse">
<stop stop-color="#7DC1FF"/>
<stop offset="1" stop-color="#278CEA"/>
</linearGradient>
<linearGradient id="paint2_linear_3_1373" x1="60.5" y1="26.4688" x2="60.5" y2="94.5312" gradientUnits="userSpaceOnUse">
<stop stop-color="#7DC1FF"/>
<stop offset="1" stop-color="#278CEA"/>
</linearGradient>
</defs>
</svg>
