<?xml version="1.0" encoding="utf-8"?>
<!-- Generator: Adobe Illustrator 24.3.0, SVG Export Plug-In . SVG Version: 6.00 Build 0)  -->
<svg version="1.1" id="Layer_1" xmlns="http://www.w3.org/2000/svg" xmlns:xlink="http://www.w3.org/1999/xlink" x="0px" y="0px"
	 viewBox="0 0 573.1 688" style="enable-background:new 0 0 573.1 688;" xml:space="preserve">
<style type="text/css">
	.st0{fill:#88C1F4;}
	.st1{fill:#2B8FEB;}
	.st2{fill:#FF434D;}
	.st3{fill:#93E1DD;}
	.st4{fill:#1ED6CB;}
	.st5{fill:#4A9BE5;}
	.st6{fill:none;stroke:#06122B;stroke-width:2.3641;stroke-linecap:round;}
	.st7{fill:none;stroke:#06122B;stroke-width:1.5957;stroke-linecap:round;}
	.st8{fill:#FF7C45;}
	.st9{fill:#FFB89A;}
	.st10{fill:#FFB7B6;}
	.st11{fill:#161B36;}
	.st12{fill:#F76161;}
	.st13{opacity:0.6;}
	.st14{fill:#030F1C;}
	.st15{fill:#E55151;}
	.st16{fill:#FFFFFF;}
	.st17{fill:#0B122D;}
	.st18{fill-rule:evenodd;clip-rule:evenodd;fill:#7686D6;}
	.st19{fill-rule:evenodd;clip-rule:evenodd;fill:#FFB7B6;}
	.st20{fill-rule:evenodd;clip-rule:evenodd;fill:#2D2B72;}
	.st21{fill:#201F20;}
	.st22{fill-rule:evenodd;clip-rule:evenodd;fill:#3268AE;}
	.st23{fill-rule:evenodd;clip-rule:evenodd;fill:#FCC92C;}
	.st24{fill:#36C9D8;}
	.st25{fill-rule:evenodd;clip-rule:evenodd;fill:#6FA3EF;}
	.st26{fill-rule:evenodd;clip-rule:evenodd;fill:#FFFFFF;}
	.st27{fill-rule:evenodd;clip-rule:evenodd;fill:#2F65BC;}
	.st28{fill:#F7B17D;}
	.st29{fill-rule:evenodd;clip-rule:evenodd;fill:#FF6C2F;}
	.st30{fill-rule:evenodd;clip-rule:evenodd;fill:#06122B;}
	.st31{fill-rule:evenodd;clip-rule:evenodd;fill:#F7B17D;}
	.st32{fill:#FCC92C;}
</style>
<path class="st0" d="M73.2,118.1h86.7c5.4,0,9.9,4.4,9.9,9.9v228.5c0,5.4-4.4,9.9-9.9,9.9H73.2c-5.4,0-9.9-4.4-9.9-9.9V127.9
	C63.4,122.5,67.8,118.1,73.2,118.1z"/>
<path class="st1" d="M73.2,131.9H91c1.1,0,2,0.9,2,2v21.7c0,1.1-0.9,2-2,2H73.2c-1.1,0-2-0.9-2-2v-21.7
	C71.3,132.8,72.2,131.9,73.2,131.9z"/>
<path class="st1" d="M102.8,131.9h17.7c1.1,0,2,0.9,2,2v21.7c0,1.1-0.9,2-2,2h-17.7c-1.1,0-2-0.9-2-2v-21.7
	C100.8,132.8,101.7,131.9,102.8,131.9z"/>
<path class="st1" d="M102.8,167.3h17.7c1.1,0,2,0.9,2,2V191c0,1.1-0.9,2-2,2h-17.7c-1.1,0-2-0.9-2-2v-21.7
	C100.8,168.2,101.7,167.3,102.8,167.3z"/>
<path class="st1" d="M73.2,167.3H91c1.1,0,2,0.9,2,2V191c0,1.1-0.9,2-2,2H73.2c-1.1,0-2-0.9-2-2v-21.7
	C71.3,168.2,72.2,167.3,73.2,167.3z"/>
<path class="st1" d="M102.8,198.9h17.7c1.1,0,2,0.9,2,2v21.7c0,1.1-0.9,2-2,2h-17.7c-1.1,0-2-0.9-2-2v-21.7
	C100.8,199.7,101.7,198.9,102.8,198.9z"/>
<path class="st1" d="M132.4,131.9h17.7c1.1,0,2,0.9,2,2v21.7c0,1.1-0.9,2-2,2h-17.7c-1.1,0-2-0.9-2-2v-21.7
	C130.4,132.8,131.3,131.9,132.4,131.9z"/>
<g>
	<path class="st2" d="M366,293.2c-6.3,12.6,7.2,36.1,14.8,46.3h19.7c4.3-8.2,13.2-29,14.8-46.3c2-21.7-34.5-13.8-34.5-36.4
		c0-22.7,0-20.7-26.6-40.4s-29.6,16.7-28.6,31.5C326.6,262.7,373.8,277.5,366,293.2z"/>
</g>
<path class="st3" d="M295.8,292.9c-12.8,0.5-12,17.8-9.9,26.4c4.3,4.6,13.4,13,15.5,9.3c2.7-4.6,0-19.9,13.7-24.8
	c13.5-4.9,19.1-14.8,27.1-29.3l0.3-0.5c8.2-14.7,28.3,4.2,42.9,6.4c14.6,2.2,21.5-10.7,26.1-28c4.6-17.2-23.9-13.5-25.3-3.8
	c-1.5,9.7-16.8,19.4-24.4,10.3c-7.6-9.1-39-5.8-40.9,6.8C318.9,278.4,311.8,292.3,295.8,292.9z"/>
<path class="st3" d="M371.1,295.2c-19.1-11.8-18.2-11.7-29.6,4.5c-6.2,1.7-18.9,6.3-19.6,11c-0.9,5.8,13.4,10,31.2,4.7
	c17.7-5.3,25.7,7.8,32.4,9.8c6.7,2,40.8-12.8,46.9-20.9c6.2-8,5.1-34.1-5.9-40.7s-12.2,8.1-20.6,24.8
	C397.5,305.1,390.3,307,371.1,295.2z"/>
<path class="st3" d="M265.4,316.2c0.8,16.1,19.3,17.5,28.5,16.2c-7.1,2.9-24.4,7.1-36.9,0.5c-15.7-8.3-6.2-11.9-16.9-20.4
	c-10.7-8.6-9.2-25.3-17.7-34.5c-8.6-9.2,27.8-12.8,45.1-15.2C284.7,260.3,264.4,296.1,265.4,316.2z"/>
<path class="st4" d="M35.6,168c27.3-6.1,37.9,19.5,39.8,33.1c-6,3.3-40.8,15.9-52.3,13.3c-11.6-2.6-25-16.6-22.8-26.8
	C2.4,177.4,1.5,175.7,35.6,168z"/>
<path class="st5" d="M18,162.3L18,162.3c2.2,0.2,3.8,2.1,3.6,4.2l-0.8,9.7c-0.2,2.2-2.1,3.8-4.2,3.6l0,0c-2.2-0.2-3.8-2.1-3.6-4.2
	l0.8-9.7C13.9,163.7,15.8,162.1,18,162.3z"/>
<path class="st5" d="M50.5,162.9L50.5,162.9c1.9,1,2.6,3.4,1.6,5.3l-4.6,8.6c-1,1.9-3.4,2.6-5.3,1.6l0,0c-1.9-1-2.6-3.4-1.6-5.3
	l4.6-8.6C46.2,162.6,48.6,161.9,50.5,162.9z"/>
<path class="st5" d="M15.3,202.1L15.3,202.1c2.2,0.2,3.8,2.1,3.6,4.2l-0.8,9.7c-0.2,2.2-2.1,3.8-4.2,3.6l0,0
	c-2.2-0.2-3.8-2.1-3.6-4.2l0.8-9.7C11.2,203.5,13.1,201.9,15.3,202.1z"/>
<path class="st5" d="M47.8,202.7L47.8,202.7c1.9,1,2.6,3.4,1.6,5.3l-4.6,8.6c-1,1.9-3.4,2.6-5.3,1.6l0,0c-1.9-1-2.6-3.4-1.6-5.3
	l4.6-8.6C43.5,202.4,45.9,201.7,47.8,202.7z"/>
<path class="st6" d="M73.3,200.7c-9.2-6.1-30.3-17.5-41.5-14.7c-11.1,2.8-24-2.1-29-4.9"/>
<path class="st6" d="M125.5,303.3c-5.3-27.6-23.1-86.7-52.2-102.4"/>
<path class="st3" d="M41.8,216.6c17.5-7.1,27.4,8.8,30.2,17.7c-3.6,2.9-25.4,15.1-33.4,14.6c-8-0.4-18.5-8.3-18.1-15.3
	C20.8,226.5,20,225.4,41.8,216.6z"/>
<path class="st5" d="M29.5,214.7L29.5,214.7c1.5-0.1,2.8,1,2.9,2.4l0.6,6.5c0.1,1.5-1,2.8-2.4,2.9l0,0c-1.5,0.1-2.8-1-2.9-2.4
	l-0.6-6.5C26.9,216.1,28,214.8,29.5,214.7z"/>
<path class="st5" d="M51.2,211.5L51.2,211.5c1.4,0.5,2.1,2,1.7,3.4l-2.1,6.2c-0.5,1.4-2,2.1-3.4,1.7l0,0c-1.4-0.5-2.1-2-1.7-3.4
	l2.1-6.2C48.3,211.8,49.8,211,51.2,211.5z"/>
<path class="st5" d="M32.1,241.5L32.1,241.5c1.5-0.1,2.8,1,2.9,2.4l0.6,6.5c0.1,1.5-1,2.8-2.4,2.9l0,0c-1.5,0.1-2.8-1-2.9-2.4
	l-0.6-6.5C29.5,242.9,30.6,241.6,32.1,241.5z"/>
<path class="st5" d="M53.8,238.3L53.8,238.3c1.4,0.5,2.1,2,1.7,3.4l-2.1,6.2c-0.5,1.4-2,2.1-3.4,1.7l0,0c-1.4-0.5-2.1-2-1.7-3.4
	l2.1-6.2C50.9,238.6,52.4,237.8,53.8,238.3z"/>
<path class="st7" d="M70.6,234.1c-6.8-3-22.1-8.3-29.3-5.2c-7.1,3.1-16.2,1.3-19.8,0"/>
<path class="st7" d="M116.7,296.7c-6.6-17.8-25-55.2-46.1-62.4"/>
<path class="st8" d="M524,185.8c-26.3,9.3-21.7,36.7-16.1,49.2c6.9-0.4,43-8.2,51.4-16.6s12.4-27.3,5-34.8
	C557.1,176.1,557,174.2,524,185.8z"/>
<path class="st5" d="M535.9,171.6L535.9,171.6c-1.7,1.3-2.1,3.8-0.8,5.5l5.8,7.8c1.3,1.7,3.8,2.1,5.5,0.8l0,0
	c1.7-1.3,2.1-3.8,0.8-5.5l-5.8-7.8C540.1,170.6,537.6,170.3,535.9,171.6z"/>
<path class="st5" d="M508.7,189.4L508.7,189.4c-1.1,1.9-0.4,4.3,1.5,5.4l8.4,4.8c1.9,1.1,4.3,0.4,5.4-1.5l0,0
	c1.1-1.9,0.4-4.3-1.5-5.4l-8.4-4.8C512.1,186.9,509.7,187.5,508.7,189.4z"/>
<path class="st5" d="M559.3,203.9L559.3,203.9c-1.7,1.3-2.1,3.8-0.8,5.5l5.8,7.8c1.3,1.7,3.8,2.1,5.5,0.8l0,0
	c1.7-1.3,2.1-3.8,0.8-5.5l-5.8-7.8C563.5,202.9,561.1,202.6,559.3,203.9z"/>
<path class="st5" d="M532.1,221.7L532.1,221.7c-1.1,1.9-0.4,4.3,1.5,5.4l8.4,4.8c1.9,1.1,4.3,0.4,5.4-1.5l0,0
	c1.1-1.9,0.4-4.3-1.5-5.4l-8.4-4.8C535.6,219.1,533.2,219.8,532.1,221.7z"/>
<path class="st6" d="M509.4,233.5c4.6-10,16.4-31,27.3-34.5c10.9-3.6,19.2-14.5,22-19.5"/>
<path class="st6" d="M519.7,348.1c-10.2-26.2-26.5-85.7-10.2-114.5"/>
<path class="st9" d="M544.5,230.3c-18.6,3.3-18.5,22-16.2,31c4.6,0.5,29.5-0.7,36.1-5.3c6.5-4.6,11.2-16.8,7.2-22.6
	C567.6,227.5,567.7,226.2,544.5,230.3z"/>
<path class="st5" d="M554,222.1L554,222.1c-1.3,0.7-1.8,2.3-1.2,3.6l3,5.8c0.7,1.3,2.3,1.8,3.6,1.2l0,0c1.3-0.7,1.8-2.3,1.2-3.6
	l-3-5.8C556.9,221.9,555.3,221.4,554,222.1z"/>
<path class="st5" d="M533.9,231L533.9,231c-0.9,1.1-0.8,2.8,0.4,3.7l5.1,4.2c1.1,0.9,2.8,0.8,3.7-0.4l0,0c0.9-1.1,0.8-2.8-0.4-3.7
	l-5.1-4.2C536.5,229.6,534.8,229.8,533.9,231z"/>
<path class="st5" d="M566,246.2L566,246.2c-1.3,0.7-1.8,2.3-1.2,3.6l3,5.8c0.7,1.3,2.3,1.8,3.6,1.2l0,0c1.3-0.7,1.8-2.3,1.2-3.6
	l-3-5.8C568.9,246,567.3,245.5,566,246.2z"/>
<path class="st5" d="M545.9,255L545.9,255c-0.9,1.1-0.8,2.8,0.4,3.7l5.1,4.2c1.1,0.9,2.8,0.8,3.7-0.4l0,0c0.9-1.1,0.8-2.8-0.4-3.7
	l-5.1-4.2C548.5,253.7,546.8,253.9,545.9,255z"/>
<path class="st7" d="M529.5,260.4c4.1-6.2,14.4-18.8,22-19.9c7.7-1.2,14.4-7.5,16.8-10.6"/>
<path class="st7" d="M523.6,337.9c-3.9-18.5-8.1-60,5.9-77.4"/>
<path class="st10" d="M465.3,100.4c-2-10.5-5.3-18.4-18.4-9c0,0-0.1-10.4-4.8-14.6c-4.7-4.1-34-22.5-35.2,7.7c0,0-0.5,24.3-0.5,30.3
	s8.5,26.6,15.6,26.6c1.7,0,3.3-0.3,5-0.8c-1,8.4-3.6,16.5-7.5,23.9l43.5-8.7c0,0-7.5-12.1-9.1-35.7
	C460.4,114,466.7,108.1,465.3,100.4z"/>
<path class="st11" d="M480.9,29.6c-20.5,0-20.6,19.8-20.6,19.8l3.2,5.9c-24.1-18-37.8-1.6-37.8-1.6c-19.4-4.3-29.2,8.7-30.6,24.2
	c-1.5,15.5,11.5,21.8,11.5,21.8l0.2-10.9c6.5-3.7,5.2-8,6-10.1c2.3,10.9,20.8,15.9,24.5,19.4c4,3.7,4.4,11.9,6.7,11.9
	s1-12.2,8.2-16.3c9.1-5.3,11.6,5.6,10,11.3c-1.9,6.2-8.9,13.7-8.9,13.7l0.9,10.3c14.2-9.2,24.8-30,23.2-48.4l0,0
	c16.4-0.5,22.6-6.5,27.5-16.6C510,53,501.4,29.6,480.9,29.6z"/>
<path class="st12" d="M477.5,67.3c-5.6-12.1-14.8-17.6-17.2-17.8c-3-0.3-4.1,1.3-4.1,1.3l0,0c2.8,1.5,5.5,3.2,8.1,5.2
	c9.6,7.4,13.4,18.1,13.2,29.2c0.8-0.4,1.5-0.9,2.2-1.5C480.7,82.8,483.1,79.4,477.5,67.3z"/>
<g class="st13">
	<path class="st14" d="M427,140c0,0,12.8-6.8,16.9-11.2c0.2,7.3-2.2,14.4-6.8,19.9c-3.6,4.2-9.3,5.5-13.3,5.7
		C425.3,149.8,426.4,145,427,140z"/>
</g>
<path class="st11" d="M423.3,88.1c0.6-0.7,1.4-1.2,3.8-1c2.4,0.1,6,2.5,5.2,3.1s-3.2-1.4-5.1-0.7c-1.9,0.7-3,1.2-3.6,0.9
	C422.8,89.8,423,88.5,423.3,88.1z"/>
<path class="st11" d="M412.9,87.4c-0.8-0.4-1.7-0.7-3.9,0.3c-2.2,0.9-4.9,4.4-4,4.7c0.9,0.3,2.6-2.4,4.6-2.4s3.2,0.2,3.7-0.4
	C413.9,88.9,413.2,87.7,412.9,87.4z"/>
<g class="st13">
	<path class="st14" d="M417,117.8c-1,0-1.9-0.2-2.8-0.7c-0.6-0.3-1-0.9-1.2-1.6c-0.2-1.3,0.9-3.8,2.1-6.3c0.2-0.4,0.3-0.7,0.4-0.9
		c1.5-3.6,0.8-10.5,0.8-10.5c0-0.2,0.1-0.3,0.2-0.4s0.3-0.1,0.4,0s0.2,0.2,0.3,0.4c0,0.3,0.7,7.2-0.9,11c-0.1,0.2-0.3,0.6-0.5,1
		c-0.7,1.5-2.2,4.7-2,5.8c0.1,0.4,0.4,0.8,0.8,1c1.1,0.6,2.5,0.8,3.7,0.4c0.2-0.1,0.5,0.1,0.5,0.3c0.1,0.2-0.1,0.5-0.3,0.6
		C418.2,117.7,417.6,117.8,417,117.8z"/>
</g>
<path class="st11" d="M415.4,126.5c-0.1-0.3,0-0.6,0.1-0.8c0.1-0.2,0.4-0.4,0.6-0.5c1.3-0.4,3.7-1.1,5.5-1.7
	c1.9-0.8,3.7-1.7,5.5-2.7c0.3-0.2,0.7-0.2,1,0s0.5,0.5,0.5,0.9c0.1,2.8-0.2,8.2-4.4,9.3C418.9,132.3,416.2,129.4,415.4,126.5z"/>
<path class="st15" d="M417.6,130c0,0,4.4-6.4,10.8-4.9c0,0,0,5-4.1,6.1C419.9,132.4,417.6,130,417.6,130z"/>
<path class="st11" d="M429.2,96.8c-0.8-0.2-1.7-0.3-2.5-0.3c-0.9,0-1.6,1.2-1.6,2.8c0,1.5,0.7,2.8,1.6,2.8s1.6-1.2,1.6-2.8
	c0-0.7-0.1-1.3-0.5-1.9c0.7,0,1.3,0.1,1.9,0.3C430.4,97.8,430.5,97.1,429.2,96.8z"/>
<path class="st11" d="M412.8,97.9c-0.8-0.2-1.5-0.3-2.3-0.3l0,0l0,0c-0.1,0-0.1,0-0.1,0l0,0c-0.8,0.1-1.5,1.3-1.5,2.7
	c0,1.5,0.7,2.8,1.6,2.8s1.6-1.2,1.6-2.8c0-0.7-0.1-1.3-0.5-1.9c0.6,0,1.2,0.1,1.8,0.3C414,98.9,414.1,98.2,412.8,97.9z"/>
<path class="st16" d="M448.4,75.7c-0.2,0-0.3-0.1-0.4-0.3c-4.6-13.2-18.1-19.1-18.2-19.2c-0.1-0.1-0.2-0.2-0.3-0.4s0-0.3,0.2-0.4
	c0.1-0.1,0.3-0.1,0.4-0.1c0.1,0.1,13.9,6.1,18.7,19.7c0.1,0.2,0,0.5-0.3,0.6C448.5,75.7,448.5,75.7,448.4,75.7z"/>
<path class="st16" d="M495.2,69c-0.2,0-0.3-0.1-0.4-0.3c-0.1-0.2,0-0.3,0.1-0.5c9-9.9,3.1-22.5,3.1-22.6c-0.1-0.2,0-0.5,0.2-0.6
	s0.5,0,0.6,0.2c0.1,0.1,6.2,13.2-3.2,23.6C495.4,68.9,495.3,69,495.2,69z"/>
<path class="st17" d="M457.9,98c-2.1-0.7-4.1,1.2-5.6,3.4l0,0c-1,1.6-1.9,3.2-2.7,4.9c-0.1,0.2,0,0.5,0.2,0.6s0.5,0,0.6-0.2
	c0.7-1.6,1.5-3.2,2.5-4.6c0.9-0.2,1.8,0,2.6,0.5c0.8,0.6,1.3,1.5,1.4,2.5c0,0.2,0.2,0.4,0.4,0.4c0,0,0,0,0.1,0s0.2-0.1,0.3-0.2
	c0.1-0.1,0.1-0.2,0.1-0.3c-0.1-1.2-0.8-2.3-1.7-3.1c-0.7-0.5-1.5-0.7-2.4-0.7c1.3-1.6,2.7-2.7,4-2.3c0.2,0.1,0.5,0,0.5-0.3
	C458.3,98.3,458.1,98.1,457.9,98L457.9,98z"/>
<path class="st17" d="M426.3,140.8c-0.2,0-0.4-0.1-0.4-0.4c0-0.2,0.1-0.4,0.2-0.5s14.5-6.7,20.6-14.7c0.1-0.1,0.2-0.2,0.4-0.2
	c0.2,0,0.3,0.1,0.3,0.3c0.1,0.1,0,0.3-0.1,0.4c-6.2,8.2-20.3,14.7-20.9,15C426.4,140.8,426.3,140.8,426.3,140.8z"/>
<path class="st18" d="M478.6,683c-1.8-0.8-3-2.6-3-4.7c0,0.2-0.1,0.4-0.1,0.6c0.3-3.1,0.8-7.3,1.7-12.8c0.8-5,2.5-6.4,2.5-6.4
	s14.9-3.1,16.9-1.7c0.9,0.7,2,3,3.3,5.9c0.4,1,0.9,2.1,1.4,3.2c0.4,0.8,0.8,1.7,1.2,2.5c2.1,4.4,4.4,9.1,5.1,13.2
	c-0.3-1.2-0.6-2.5-1-3.7c-0.9,1.5-2.2,2.7-3.7,3.6C497.7,685.7,483,686,478.6,683z M346.6,676.3c2.8-1.8,22.9-7.8,22.9-7.8l36.2-9.3
	c0,0,4,7.4,4,14.6c0,2.7-0.6,5.3-1.8,7.7c-1,1.9-2.9,3.1-5,3.1c-10.1,0.2-48.8,0.7-53.3-0.1C344.2,683.5,343.8,678.1,346.6,676.3z"
	/>
<path class="st19" d="M495.2,606.9l1.2,49.3c0,0,3.6,12.6,3.4,13.4c-0.9,5.1-19.7,7-20.7,0.2c-0.1-1,0.5-12.7,0.5-12.7l-5.5-48.4
	L495.2,606.9z M385.5,659.3c5.1-4.5,2.8-30,2.8-30l17.5,2.8c0,0-0.3,24.5,0,27s-11.2,9.2-20.7,10.7s-17.4,0.9-17.6,0
	c-0.1-0.4,1.7-1.2,4.2-2.4C375.7,665.5,381.6,662.7,385.5,659.3z"/>
<g class="st13">
	<path class="st14" d="M369.4,684.8c1.7-4.1,5.5-6.8,9.8-6.9c8.6-0.3,10.3,6.8,10.3,6.8L369.4,684.8z"/>
</g>
<path class="st20" d="M503,682.7c1.5-0.8,2.8-2.1,3.7-3.6c0,0,1.6,4.5,1.3,6.6v1.7h-32.8v-1.7c0,0,0.1-3.9,0.6-7.4
	c-0.1,2,1.1,3.9,3,4.7C483,686,497.7,685.7,503,682.7z M402.9,684.5c2.1,0,4-1.2,5-3.1c0.3-0.5,0.5-1,0.7-1.5l0,0
	c-0.2,1.4-0.6,2.8-1.1,4.2c-0.7,2.1-2.6,3.4-4.7,3.4l-53.9-0.1c-1.9,0-3.5-1.5-3.7-3.5l-0.3-3.3h0.1c0.4,1.7,1.9,3.2,4.5,3.7
	C354.2,685.2,392.8,684.7,402.9,684.5z"/>
<path class="st21" d="M394.9,301.6c-9.8,77.2-15.1,140.3-15.4,151.1c-0.3,10.7,5.9,192.4,5.9,192.4s16.4,1.7,23.6-2
	c0,0,5.5-63.7,8-85.6s9-69,9-90c6.4-28.7,11.8-63.2,11.8-63.2s3.9,24.7,9.2,58.3c11.2,71,28.9,181.6,30.1,182.3
	c1.3,0.8,11.2,2.4,21.8-1.5c0,0-1.6-32.8-1.2-51.4c0.4-18.6-0.6-94.1-7-126.6c0,0,3-29.3,6.9-51c2.5-13.8,6-36.2,2.9-57
	c-3.9-26.3-11-32.7-15.5-57.8C458.4,287.6,422.8,286.8,394.9,301.6z"/>
<g class="st13">
	<path class="st14" d="M437.8,404.2L428,360c0,0-10.4,24.2-9.3,43.1c1.1,18.8,7.9,17.7,9.6,53.3L437.8,404.2z"/>
</g>
<g class="st13">
	<path class="st16" d="M387.3,366c0,0,8.6,2.8,7.9,12.8c-0.8,9.9-5.5,62.1-5.6,80.5s2.7,69.4,0,79.2s-7.3,10.6-7.3,10.6
		s-2.4-75.3-2.7-96.5C380.5,430.9,387.3,366,387.3,366z"/>
</g>
<g class="st13">
	<path class="st16" d="M444.1,444.3c0,0,8.9,2.2,12.9,20.8c4,18.6,12.9,84.5,14.7,100.4c1.8,15.9-4.2,25.5-4.2,25.5L444.1,444.3z"/>
</g>
<path class="st17" d="M493.9,330c-6.7,0-12.1-2.1-15.9-6.4c-7.1-7.9-6.3-20.3-6.3-20.8c0-0.1,0.1-0.2,0.1-0.3
	c0.1-0.1,0.2-0.1,0.3-0.1c0.2,0,0.4,0.2,0.4,0.5c0,0.1-0.8,12.5,6.1,20.1c3.6,4,8.8,6.1,15.3,6.1c0.2,0,0.4,0.2,0.4,0.4
	C494.3,329.8,494.1,330,493.9,330z"/>
<path class="st17" d="M390.8,331.9c-0.2,0-0.4-0.1-0.4-0.3c0-0.2,0-0.4,0.2-0.5s15.3-8.4,14.5-23.4c0-0.2,0.2-0.4,0.4-0.5
	c0.2,0,0.4,0.2,0.5,0.4c0.8,15.6-14.8,24.2-15,24.3C390.9,331.9,390.8,331.9,390.8,331.9z"/>
<g class="st13">
	<path class="st14" d="M394.9,301.6l-1.7,13.5c0,0,34.4,20.3,98.4,9.8c0,0-5.5-17.1-6.4-25.4L394.9,301.6z"/>
</g>
<path class="st22" d="M511.3,199.4c3.4,9.5,7.7,21.4,13.5,36.4c5.9,15.3,4.5,27.8-13.4,31.5c-3.9,0.8-16.4,3.2-29.9,5.6
	c1,9.1,2.6,18.1,4.7,27c0.4,1.8-0.3,3.8-1.8,4.8c-14.5,10-73.9,14.3-88.7,2.3c-1.5-1.3-2.3-3.3-2-5.3c4-27.6,2.2-45.8-0.8-53.7
	c-0.5-1.2-0.9-2.3-1.3-3.3c-1.8-4.6-3.4-8.4-3.7-13.9c-8,11-20.4,26-31,25.8c-8.3-0.1-17.9-6.5-36.2-36.7c-0.4-0.7-1.6-2.6-3.1-5.1
	c-5.3-8.7-15.5-25.3-17-28.2c7.3,0.7,14.2-3.7,16.7-10.8l18.2,24.1l20.4,23.7c0.5,0.5,1.2,0.8,1.9,0.7c0.7-0.1,1.3-0.6,1.5-1.3
	c3.4-8.5,7.3-16.9,11.6-24.9c3.7-7,8-13.7,12.9-20c5.8-7.1,13.4-12.5,21.9-15.5c0.1,0,17.9-6.3,17.9-6.3s-7.2,25.7,9.5,24.7
	c23.1-1.5,29.3-27.6,29.3-27.6s13.1,3.5,19.6,5.7C498.3,163.3,500.3,168.9,511.3,199.4z M480.7,250.1c5.2-1.9,12.3-4.6,15.9-6
	c0.6-0.2,1.1-0.7,1.3-1.3c0.2-0.6,0.2-1.3,0-1.9c-2.2-5.1-7.7-17.6-12.6-28.6c-0.5,7.3-1.4,14.5-2.7,21.6
	C481.6,239.3,480.9,244.7,480.7,250.1z"/>
<path class="st23" d="M462.2,153.6l14.8,4.2c0,0,2.8,16.6-22,19.8c2.1,9.9-13.6,24.7-27.3,3.3c-15.1,16.9-19.4-3.1-12.6-8.6
	c-7.5-6.5-5.7-10.8-5.7-10.8l14.1-4.9c-5.4,20.3,4.3,24.3,4.3,24.3l0,0C427.7,180.8,452.7,185.6,462.2,153.6z"/>
<g class="st13">
	<path class="st16" d="M356.1,234.8c-6.4-7-27.7-31.2-20.9-34.8l20.4,23.7c0.5,0.5,1.2,0.8,1.9,0.7c0.7-0.1,1.3-0.6,1.5-1.3
		c3.4-8.5,7.3-16.9,11.6-24.9c2.8,5.8-2.2,22.2-11.3,36.4c-0.3,0.5-0.9,0.9-1.5,0.9S356.5,235.3,356.1,234.8z"/>
</g>
<path class="st17" d="M354,236c-0.1,0-0.3-0.1-0.3-0.2c-0.1-0.1,0-0.3,0.1-0.4c4-4.3,3.4-10.1,3.4-10.2c0-0.2,0.1-0.4,0.3-0.4
	c0.2,0,0.4,0.1,0.4,0.3c0.3,3.9-1,7.8-3.6,10.7C354.2,236,354.1,236,354,236z"/>
<g class="st13">
	<path class="st14" d="M387.8,225c0.4-4.8,2.7-14,5.2-26.3c-0.8,0.8-1.6,1.6-2.4,2.5c-11,12.7-2.7,24.7-7.6,31.9
		c-9.7,14.4-11.8,6.3-20.2,14.2c-2.5,2.3-3.5,5.2-3.6,9.1c7-0.6,20.6-13.4,28.8-23C387.6,230.6,387.5,227.8,387.8,225z"/>
</g>
<g class="st13">
	<path class="st14" d="M390.4,242c0,0,7.3,6.9,14.8,7.1c5.1,0.1,6.2,3,0.9,4.1c-2.5,0.5-7,0.1-11.9,0
		C393.3,249.3,392,245.6,390.4,242L390.4,242z"/>
</g>
<g class="st13">
	<path class="st14" d="M481.4,272.9c-2.7,0.5-5.4,0.9-8.1,1.4c0.6,3.9,0.7,7.4,0.2,9.4c-3.1,13.4-16.9,22.5-24.6,24.4
		c-4.8,1.2-9.3,3.3-13.4,6.2c0,0,33.5-0.2,48.7-9.6c0,0,2.6-1.1,1.8-4.8C483.8,291,482.2,282,481.4,272.9L481.4,272.9z"/>
</g>
<g class="st13">
	<path class="st14" d="M461.6,254.5c1,0,2,0.2,2.8,0.7c4.7-1.3,9.1-2.6,11.7-3.5c1.2-0.4,2.8-1,4.6-1.7c0-1.3,0.1-2.7,0.2-4.1
		c0.5-9.2,3.1-15.5,4.4-33.5c-3.1-7.1-6-13.5-7.7-16.8c0.4,8.9,0.9,28.4-1.9,38.2c-2.6,8.8-12.8,13.4-19.7,14.6
		C445.5,250.4,446.9,254.9,461.6,254.5z"/>
</g>
<path class="st17" d="M426.7,216.6L426.7,216.6c-0.2,0-0.4-0.2-0.4-0.5l1-34.8c0-0.2,0.2-0.4,0.4-0.4c0.2,0,0.4,0.2,0.4,0.5l-1,34.8
	C427.2,216.4,427,216.6,426.7,216.6z"/>
<path class="st17" d="M450.6,278.3c-0.2,0-0.3-0.1-0.4-0.3s0.1-0.4,0.3-0.4l22.8-3.7c0.1,0,0.2,0,0.3,0.1c0.1,0.1,0.1,0.2,0.1,0.4
	c0,0.1-0.2,0.2-0.3,0.2L450.6,278.3L450.6,278.3z"/>
<g class="st13">
	<path class="st16" d="M504.2,247.6c-8.1,3.3-31.6,14-35.4,6.5c12.2-3.5,27.7-9.9,27.7-9.9c0.6-0.2,1.1-0.6,1.3-1.2
		c0.2-0.6,0.2-1.3,0-1.8c-1.8-3.8-4.8-11.7-10.3-23.4c1.8-0.8,5.7,0,6.9,2.3c1.4,2.7,8.4,16.8,11.4,22.6
		C506.4,243.8,506.3,246.7,504.2,247.6z"/>
</g>
<path class="st17" d="M505.5,249.5c-0.2,0-0.3-0.1-0.3-0.3s-1-5.8-7.4-6c-0.2,0-0.3-0.2-0.3-0.4s0.2-0.4,0.4-0.4
	c3.9-0.1,7.3,2.7,8.1,6.6C505.9,249.3,505.8,249.5,505.5,249.5C505.6,249.5,505.6,249.5,505.5,249.5z"/>
<path class="st17" d="M486.7,212c-0.1,0-0.1,0-0.2-0.1c-10-7.1-10-22.7-10-22.8c0-0.2,0.2-0.4,0.3-0.4l0,0c0.2,0,0.3,0.2,0.3,0.4
	s0,15.3,9.7,22.2c0.1,0.1,0.2,0.3,0.1,0.4C487,211.9,486.9,212,486.7,212L486.7,212z"/>
<g class="st13">
	<path class="st16" d="M383.9,177.9c0,0,15.4-9.8,33-13.4l-0.4-5.5C409.2,161.9,395.3,164,383.9,177.9z"/>
</g>
<path class="st24" d="M446,287.8l-26.8-46.9l-7.3-12.8c-0.6-1-1.6-1.6-2.8-1.6h-43.5c-1.3,0.2-2.4,0.9-3.1,2.1
	c-0.1,0.2-0.3,0.4-0.4,0.6c-0.2,0.3-0.3,0.7-0.4,1.1l0,0c-0.4,0.9-0.3,1.9,0.1,2.7v-0.1c0,0.1,0,0.1,0.1,0.2l0,0l0,0
	c0,0,0,0.1,0.1,0.1l23.9,41.7l4.3,7.6l5.9,10.4c0.6,1,1.6,1.6,2.8,1.6h43.5c0.2,0,0.3,0,0.5,0C445.3,294.5,447.3,290,446,287.8z"/>
<g class="st13">
	<path class="st14" d="M361.5,232.4c0-0.1,0-0.2-0.1-0.3C361.5,232.2,361.5,232.3,361.5,232.4z"/>
	<path class="st14" d="M361.7,232.9c0,0.1,0,0.1,0.1,0.2v0.1C361.8,233,361.7,233,361.7,232.9z"/>
	<path class="st14" d="M361.7,232.8c-0.1-0.1-0.1-0.3-0.1-0.4C361.6,232.5,361.6,232.7,361.7,232.8z"/>
	<path class="st14" d="M442.8,294.5c1.1-0.2,2-0.9,2.5-1.9s0.4-2.2-0.1-3.1l-27.3-47.8l-6.8-11.9c-0.6-1-1.6-1.6-2.8-1.6h-43.4
		c-1.3,0-2.5,0.8-3,2.1c0.1-0.4,0.3-0.7,0.4-1.1c0.1-0.2,0.2-0.4,0.4-0.6c0.7-1.1,1.8-1.9,3.1-2.1h43.4c1.1,0,2.2,0.6,2.8,1.6
		l7.3,12.8l26.8,46.9C447.3,290,445.3,294.5,442.8,294.5z"/>
</g>
<g class="st13">
	<path class="st14" d="M364.3,231.3h3c0.2,0,0.4,0.1,0.5,0.3l0.7,1.3c0.1,0.2,0.1,0.4,0,0.6c-0.1,0.2-0.3,0.3-0.5,0.3h-3
		c-0.2,0-0.4-0.1-0.5-0.3l-0.7-1.3c-0.1-0.2-0.1-0.4,0-0.6S364.1,231.3,364.3,231.3z"/>
</g>
<g class="st13">
	<path class="st14" d="M393.9,252.6h3.9c1.2,0,2.2,0.6,3,1.5c1.7,2.1,0.9,4.7-1.4,4.7h-3.9c-1.2,0-2.2-0.6-3-1.5
		C390.8,255.2,391.6,252.6,393.9,252.6z"/>
</g>
<path class="st19" d="M312,159.1c0,0-0.4-7.3-2.5-9.4c-1.4-1.2-3.2-1.6-5-1.1c0,0-0.2-0.4-0.4-1c-0.2-0.5-0.5-1.2-0.8-1.9
	c-0.5-1.2-1.1-2.5-1.3-3.1c-2.9-8.1-7.8-18.5-10.3-17.7c-2,0.7-0.4,5.3,3.5,16.5l0,0c0.5,1.5,1,3,1.6,4.7c-0.3-0.6-2.1-2.8-5.5-1.5
	c-2.4,1-0.7,5.2-0.7,5.2s-3.4-1.5-5,0.2c-1.8,1.9-0.2,5.2-0.1,5.4c-0.2-0.1-3.4-1.6-4.6,1.4c-0.5,1.2,0.8,4.7,3.2,8.7
	c0.3,0.5,0.6,1,1,1.5c0.1,0.1,0.1,0.2,0.2,0.4l0,0c0.6,0.9,1.3,1.9,2,2.9l0,0c0.2,0.3,0.4,0.6,0.6,0.8l0,0c3.6,4.8,5.4,7.2,11,9.3
	c0,0,1.4,2.6,3.3,6.3c6-0.1,11.5-3.7,14.1-9.3c-1.1-1.8-2.1-3.7-2.9-5.7C313.5,171.9,313,167.3,312,159.1z M442.9,262.1L442.9,262.1
	c-1,0.2-2,0.2-3,0.1c-0.4-0.1-0.9-0.3-1.4-0.4c-1.4-0.3-3.2-0.8-4.6-1.7c-1-0.7-3.4-3.7-5.4-6.4c-1.7-2.2-3.2-4.1-3.6-4.3
	c-0.8-0.3-3.2,3.6-1.5,6.4c0.6,0.9,1.1,1.7,1.7,2.4l0,0c1.2,1.6,2.1,2.9,1.7,3.4s-2.1,0.8-3.8,1c-0.3,0-0.6,0.1-0.9,0.1
	c-3.8,0.4-12.5,1.5-13.3,2c-1.1,0.7-1.6,2.8,0.5,3.2c1.1,0.2-0.4,0.9-1.7,1.5c-0.5,0.2-1,0.5-1.2,0.6c-1.1,0.7-1.6,2.8,0.5,3.2
	c1.6,0.4,4.1,1,3.4,1.4c-1.1,0.7-1.6,2.8,0.5,3.2c0.3,0.1,0.8,0.2,1.3,0.3c1.5,0.3,3.4,0.6,3,0.9c-1,0.7-1.4,2.5,0.4,2.9
	c1.1,0.3,7.3-0.5,11.7-1.1c2.7,0.5,10.2-0.2,13.1-2.1c1.8-1,3.8-1.8,5.8-2.2c0.8-5.1-0.1-10.2-2.5-14.7
	C443.2,262,443,262.1,442.9,262.1z M430.6,181.2c-14.8-0.5-7.6-23.2-7.6-23.2l39.2-4.4C459.6,171,446,181.7,430.6,181.2z"/>
<path class="st17" d="M422.9,267.1c0-0.1,0-0.2-0.1-0.2c-0.1-0.1-0.1-0.1-0.2-0.1l-13.7,1.4c-0.2,0-0.3,0.2-0.3,0.3
	c0,0.2,0.2,0.3,0.3,0.3l0,0l13.7-1.4c0.1,0,0.2,0,0.2-0.1C422.8,267.3,422.9,267.2,422.9,267.1z"/>
<path class="st17" d="M423.7,273c0-0.2-0.2-0.3-0.3-0.3l-13.9,1.8c-0.2,0-0.3,0.2-0.3,0.3c0,0.2,0.2,0.3,0.3,0.3l0,0l13.9-1.8
	c0.1,0,0.2-0.1,0.2-0.1C423.7,273.2,423.7,273.1,423.7,273z"/>
<path class="st17" d="M425.9,277.7l-11.7,1.2c-0.2,0-0.3,0.2-0.3,0.3c0,0.2,0.2,0.3,0.3,0.3l0,0l11.7-1.2c0.2,0,0.3-0.2,0.3-0.4
	C426.2,277.9,426.1,277.7,425.9,277.7z"/>
<path class="st14" d="M301,157.8c-0.2,0-0.3,0.2-0.3,0.4c0,0.9-0.1,2.1-0.7,2.3c-0.9,0.4-2.7-1-3.7-2c-0.1-0.1-0.3-0.1-0.4-0.1
	c-0.1,0.1-0.2,0.2-0.2,0.4c0.4,2,0.2,3.3-0.6,3.9c-1.6,1.2-5.1-0.5-5.1-0.5c-0.1,0-0.1,0-0.2,0c-0.8-1.5-2.3-3.8-2.9-5.3
	c-0.1-0.2-0.3-0.3-0.5-0.2s-0.2,0.3-0.2,0.5c0.7,1.5,2.3,4.2,3.1,5.6l0.1,0.1c0.1,1.3-0.2,2.2-0.8,2.6c-1,0.8-2.6,0.2-2.6,0.2
	c-0.2-0.1-0.4,0-0.4,0.2c-0.1,0.2,0,0.4,0.2,0.4c0.5,0.2,1,0.3,1.5,0.3c0.6,0,1.3-0.2,1.8-0.6c0.8-0.8,1.2-1.9,1.1-3.1
	c1.1,0.5,3.8,1.4,5.3,0.2c0.9-0.7,1.2-1.9,1-3.6c0.9,0.8,2.5,2,3.7,1.5c0.8-0.3,1.2-1.3,1.1-3c0-0.1,0-0.2-0.1-0.2
	C301.2,157.8,301.1,157.8,301,157.8z"/>
<path class="st14" d="M304.5,156.3c-2.4,0.4-9.1,1.1-10.5-0.5c-0.2-0.2-0.3-0.6-0.2-0.9c0.8-3.6,10-5.7,10.1-5.7s0.2-0.1,0.3-0.2
	c0-0.1,0-0.2-0.1-0.3s-0.2-0.1-0.3-0.1c-0.4,0.1-8.9,2.1-10.4,5.7l-1.8-3.1c-0.1-0.2-0.3-0.2-0.5-0.1c-0.2,0.1-0.2,0.3-0.1,0.5
	l2.1,3.8l0,0c0,0.4,0.1,0.9,0.4,1.2c0.9,0.9,3,1.2,5.1,1.2c2,0,4-0.2,6-0.5c0.2,0,0.3-0.2,0.3-0.4
	C304.8,156.4,304.6,156.3,304.5,156.3L304.5,156.3z"/>
<path class="st21" d="M239.2,317.1c0,0,10.1,126,9.6,146.7c-0.6,20.7-2.2,147.9-2.2,147.9s-13.5,7.3-27.5,0c0,0-8.4-78.7-12.4-102.2
	c-3.9-23.4-2.8-55.3-2.8-55.3l-20.2-49.7l-34.9,208.7c0,0-17.9,4.5-26.3-1.1c0,0,1.7-39.6,0-78.7s1.7-67.6,6.7-82.6
	c0,0-11.2-78.2-9-130.6L239.2,317.1z"/>
<path class="st16" d="M120.5,352.5L120.5,352.5c26.2-4.6,21.9-33.4,21.9-33.7c0-0.2-0.3-0.4-0.5-0.3c-0.2,0-0.4,0.3-0.4,0.5
	c0,0.3,4.2,28.3-21.1,32.7c-0.2,0-0.4,0.2-0.3,0.4C120.1,352.4,120.2,352.5,120.5,352.5L120.5,352.5z"/>
<path class="st16" d="M241.8,346.7c0.2,0,0.4-0.1,0.4-0.3c0-0.2,0-0.4-0.2-0.5s-18.3-9.7-17.3-27c0-0.1,0-0.2-0.1-0.3
	c-0.1-0.1-0.2-0.1-0.3-0.1s-0.2,0-0.3,0.1s-0.1,0.2-0.1,0.3c-1,17.8,17.6,27.6,17.8,27.7C241.7,346.6,241.8,346.7,241.8,346.7z"/>
<path class="st16" d="M203.7,461.6L203.7,461.6c0.2,0,0.3-0.1,0.3-0.2s0.1-0.2,0.1-0.3c0-0.1-1.3-13.7,4.2-22.8
	c0.1-0.2,0.1-0.5-0.1-0.6c-0.2-0.1-0.5-0.1-0.6,0.1c-5.6,9.3-4.3,23.2-4.3,23.3C203.3,461.4,203.5,461.6,203.7,461.6z"/>
<g class="st13">
	<path class="st14" d="M239.2,317.1l0.7,9.9c-46.9,18.5-120,5.6-120,5.6l0.2-12.3L239.2,317.1z"/>
</g>
<g class="st13">
	<path class="st14" d="M183.6,404.6l11.2-41.6c0,0,5.9,22.5,3.4,46.9s0,30.6,0,30.6L183.6,404.6z"/>
</g>
<g class="st13">
	<path class="st16" d="M241.6,349c0,0-11.5,0.9-11.8,11.1c-0.3,8.1,1.9,38.7,4.1,60.5c2.2,21.8,1.8,62.7,2.2,80
		c0.4,17.3,11.7,15.1,11.7,15.1s1.5-49.3,0.6-62C247.6,441,245.5,390.2,241.6,349"/>
</g>
<g class="st13">
	<path class="st16" d="M180.3,424.7c0,0-15.4-0.4-18.8,19.7c-4.2,24.7-13.1,96.6-15,109.3s-0.9,28,7.3,29.1L180.3,424.7z"/>
</g>
<path class="st25" d="M149.9,613.1l-27.3-2.9L100.8,645h53.9L149.9,613.1z M274.3,634.6l-29.5-21.3h-24.4l-2.9,31.6h80.9
	c-0.3-2-1.4-7.5-5.3-8.9L274.3,634.6z"/>
<path class="st26" d="M143.1,619.6c0-0.9-0.7-1.7-1.7-1.7h-16c-0.9,0-1.7,0.7-1.7,1.7c0,0.9,0.7,1.7,1.7,1.7h16
	C142.3,621.3,143.1,620.6,143.1,619.6z M139.8,623.7c0.9,0,1.7,0.7,1.7,1.7c0,0.9-0.7,1.7-1.7,1.7h-16c-0.9,0-1.7-0.7-1.7-1.7
	c0-0.9,0.7-1.7,1.7-1.7H139.8z M138.3,629.1c0.9,0,1.7,0.7,1.7,1.7c0,0.9-0.7,1.7-1.7,1.7h-16c-0.9,0-1.7-0.7-1.7-1.7
	c0-0.9,0.7-1.7,1.7-1.7H138.3z M265.6,628.3h-14.8c-0.9,0-1.7,0.7-1.7,1.7s0.7,1.7,1.7,1.7h19.4L265.6,628.3z M243.2,622.9H258
	l4.6,3.3h-19.4c-0.9,0-1.7-0.7-1.7-1.7C241.5,623.6,242.3,622.9,243.2,622.9z M251.2,618h-14.8c-0.9,0-1.7,0.7-1.7,1.7
	c0,0.9,0.7,1.7,1.7,1.7h19.4L251.2,618z"/>
<path class="st27" d="M148,607.1c1.7,0,3.1,1.4,3.1,3.1s-1.4,3.1-3.1,3.1h-24.7c-1.7,0-3.1-1.4-3.1-3.1s1.4-3.1,3.1-3.1H148z
	 M231.8,645c0,0,2.5-13.4-13.1-13.4l-1.2,13.4c0,0-0.4,6.2,1.6,6.2h74.2c2.4,0.1,4.4-1.5,4.8-3.8l0.3-2.3h-66.6V645z M245.5,607.2
	h-26.8c-1.1,0-1.9,0.9-1.9,1.9v2.2c0,1.1,0.9,1.9,1.9,1.9h26.8c1.1,0,1.9-0.9,1.9-1.9v-2.2C247.4,608.1,246.6,607.2,245.5,607.2z
	 M143.4,633.8H112c-3,0-5.9,1.2-8,3.3s-3.3,5-3.3,7.9v6.2h53.9V645C154.7,638.8,149.6,633.8,143.4,633.8z"/>
<path class="st28" d="M154.2,82.4c0-13.4,14.9-9.1,17.4-8.3c2.5,0.8,8.4-18.5,8.4-18.5s30.4-2.5,36.3,3.4c0,0,1.7,25.2,0.8,41.1
	c-0.8,15.9-6,22.6-11.9,22.6c-1.9-0.1-3.7-0.5-5.4-1.3v29.4L164,132.4l4.4-34.7c-0.2-0.1-0.3-0.2-0.3-0.2S154.2,95,154.2,82.4z"/>
<path class="st11" d="M217.4,77.5c0,0,7.4-6.8,8.2-21.1s-2.2-29.4-11.2-28.8s-20.4,1.1-29.4,0s-29.4,3.7-30.9,19.4
	c-4.8,7.3-7,15.9-6.4,24.6c1.1,14.5,6,33.7,21.2,38l0.7-11.5c0,0-15.5-13.1-10.6-19.2c6.2-7.9,15-0.7,15.9,4.6c0,0,2.8-2.8,3.2-13
	c0,0,7.5-5.4,7.7-12.8c0,0,24-2.4,29,1.7L217.4,77.5z"/>
<g class="st13">
	<path class="st14" d="M199.8,121.5c0,0-12.2-5.6-16.1-9.7c0,0,0.9,11,8.9,18.8s7.2,1.5,7.2,1.5L199.8,121.5L199.8,121.5z"/>
</g>
<ellipse class="st11" cx="198.3" cy="78.2" rx="1.6" ry="2.6"/>
<ellipse class="st11" cx="213.9" cy="79.3" rx="1.6" ry="2.6"/>
<path class="st11" d="M201.5,67.9c-0.6-0.6-1.3-1.1-3.6-1s-5.8,2.3-5.1,2.9c0.8,0.6,3.1-1.3,4.9-0.7c1.8,0.6,2.9,1.1,3.5,0.8
	C202,69.5,201.8,68.2,201.5,67.9z"/>
<path class="st11" d="M211.6,67.3c0.7-0.4,1.6-0.6,3.8,0.2s4.8,4,3.9,4.3c-0.9,0.3-2.5-2.2-4.4-2.2s-3.1,0.2-3.6-0.4
	C210.6,68.6,211.2,67.5,211.6,67.3z"/>
<g class="st13">
	<path class="st14" d="M208.1,95.6c0.8,0,1.6-0.2,2.3-0.5c0.5-0.3,0.8-0.7,0.9-1.2c0.2-1.1-0.9-2.8-2.3-4.7c-0.4-0.5-0.7-0.9-1-1.5
		s-0.2-6,0-10.9h-0.8c-0.1,1.7-0.5,10.3,0,11.3c0.3,0.5,0.7,1.1,1,1.6c0.9,1.2,2.3,3.3,2.2,4.1c-0.1,0.3-0.2,0.5-0.5,0.7
		c-1.2,0.5-2.6,0.6-3.8,0.1l-0.3,0.8C206.7,95.5,207.4,95.6,208.1,95.6z"/>
</g>
<path class="st11" d="M209.2,103.6c0.1-0.2,0-0.5-0.1-0.7s-0.3-0.4-0.6-0.5c-1.2-0.4-3.5-1-5.3-1.6c-1.8-0.7-3.6-1.6-5.3-2.5
	c-0.3-0.2-0.7-0.2-1,0s-0.5,0.5-0.5,0.8c-0.1,2.6,0.2,7.6,4.3,8.7C205.7,109,208.3,106.4,209.2,103.6z"/>
<path class="st15" d="M207,106.8c0,0-4.3-5.9-10.4-4.6c0,0,0,4.6,3.9,5.7C204.8,109.1,207,106.8,207,106.8z"/>
<path class="st17" d="M163.5,79.5c4-1.4,7.8,7.4,8,7.8c0.1,0.2,0,0.5-0.2,0.5c-0.2,0.1-0.5,0-0.6-0.2c-0.7-1.5-1.5-3-2.4-4.3
	c-0.9-0.1-1.7,0-2.5,0.5c-0.7,0.5-1.2,1.4-1.3,2.3c0,0.2-0.2,0.4-0.4,0.4c0,0,0,0-0.1,0s-0.2-0.1-0.3-0.2s-0.1-0.2-0.1-0.3
	c0.1-2,1.9-3.6,3.9-3.5c-1.2-1.5-2.6-2.5-3.9-2.1c-0.1,0-0.3,0-0.4-0.1c-0.1-0.1-0.2-0.3-0.1-0.4C163.3,79.7,163.4,79.6,163.5,79.5
	L163.5,79.5z"/>
<path class="st17" d="M199.9,121.9c0.2,0,0.4-0.1,0.4-0.3c0-0.2-0.1-0.4-0.2-0.5c-0.1-0.1-14-6.2-19.9-13.7
	c-0.1-0.2-0.4-0.2-0.6-0.1c-0.2,0.1-0.2,0.4-0.1,0.6c6,7.6,19.6,13.7,20.2,13.9C199.7,121.9,199.8,121.9,199.9,121.9z"/>
<path class="st16" d="M182,52.3c0.1,0,0.1,0,0.2-0.1c7-4,6-13.8,5.9-14.2c0-0.1-0.1-0.2-0.2-0.3c-0.1-0.1-0.2-0.1-0.3-0.1
	c-0.2,0-0.4,0.2-0.4,0.5c0,0.1,1,9.6-5.5,13.4c-0.2,0.1-0.2,0.3-0.2,0.5C181.6,52.1,181.8,52.3,182,52.3L182,52.3z"/>
<path class="st16" d="M168.5,63.6c0.1,0,0.2,0,0.3-0.1c7.2-6.8,4.3-17.8,4.3-17.9c-0.1-0.2-0.3-0.4-0.5-0.3s-0.4,0.3-0.3,0.5
	c0,0.1,2.7,10.6-4.1,17.1c-0.1,0.1-0.2,0.3-0.1,0.5C168.2,63.5,168.4,63.6,168.5,63.6L168.5,63.6z"/>
<path class="st24" d="M372.6,148.8l-15-3c-3.1-0.6-6,1.4-6.7,4.4l-7.4,36.3c-0.6,3.1,1.4,6,4.4,6.6l15,3c3.1,0.6,6-1.4,6.7-4.4
	l7.4-36.3C377.6,152.3,375.7,149.4,372.6,148.8z"/>
<g class="st13">
	<path class="st16" d="M344.8,188.4l8.1-39.6c0.3-1.3,1.5-2.1,2.9-1.9l3.9,0.8v0.2c-0.1,0.3,0,0.7,0.2,0.9c0.2,0.3,0.5,0.5,0.8,0.5
		l8,1.6c0.3,0.1,0.7,0,0.9-0.2c0.3-0.2,0.5-0.5,0.5-0.8v-0.2l3.9,0.8c1.3,0.3,2.2,1.5,1.9,2.8l-8.1,39.6c-0.1,0.6-0.5,1.2-1,1.5
		c-0.5,0.4-1.2,0.5-1.8,0.4l-18.2-3.7c-0.6-0.1-1.2-0.5-1.5-1C344.8,189.6,344.7,189,344.8,188.4z"/>
</g>
<path class="st29" d="M90.9,204.5c-3,7.7-6.4,16.4-10.4,26.3c-7,17.6,4.7,34.8,28.8,32.4c5.5-0.5,10.8-1.1,16.4-1.8
	c0.4,9,0.3,17.9-3.8,33.5c-2.3,9.4-3.6,19-3.7,28.7c0,0,99,16.6,119.2,0c4.2-3.4,2.1-11.7,0.3-19.2c-0.9-3.7-1.8-7.2-1.9-9.9
	c-0.2-7.5-0.5-14.6-0.8-21.3c-0.2-4.7-0.4-9.2-0.6-13.5c2.6,4,5.4,7.9,8.3,11.7c8.7,11.1,15.4,15,27.4,8.7
	c14.6-7.7,34.8-26.9,78.6-70.3c-7.8-2.5-11.7-9.3-12.4-17.6l-35.7,22.6l-32.4,19.9c-0.7,0.5-1.7,0.5-2.5,0.1s-1.3-1.1-1.4-2
	c-1.1-11-2.8-21.9-5.1-32.7c-5-22.6-12.2-42.9-30.6-52c-9.8-5.4-22.9-11.2-22.9-11.2L189,141l-27.9-6.3c0,0-20.1,4.2-28.8,6.9
	C113.6,146.8,109.5,157.3,90.9,204.5z M124.2,223.7l0.2,4.2l-2.3,0.1C122.8,226.5,123.5,225.2,124.2,223.7z"/>
<path class="st30" d="M165.2,120.3l-3.8,14.3l22.5,17.3c0,0,1.1-6.9,5.4-11l9.7,11l6.9-15.1l-6.2-7.3c0,0-3.3,8.1-10.5,11.4
	C178.4,138.1,169.6,130.5,165.2,120.3z M154,193.6h27.8v4.5H154V193.6z"/>
<path class="st17" d="M226.1,308.3c0.1,0,0.1,0,0.2-0.1c7.4-4.2,9.9-13.3,10-13.7c0-0.1,0-0.3-0.1-0.4s-0.3-0.1-0.4-0.1
	c-0.1,0-0.3,0.2-0.3,0.3c0,0.1-2.6,9.1-9.6,13.1c-0.2,0.1-0.2,0.3-0.2,0.5C225.7,308.2,225.9,308.3,226.1,308.3z"/>
<path class="st17" d="M237.4,207.8c0.2,0,0.4-0.2,0.4-0.4c2.8-18.6,1.5-32,1.5-32.2s-0.2-0.4-0.5-0.4c-0.1,0-0.2,0.1-0.3,0.2
	c-0.1,0.1-0.1,0.2-0.1,0.3s1.3,13.5-1.5,32c0,0.1,0,0.2,0.1,0.3C237.1,207.7,237.2,207.7,237.4,207.8
	C237.3,207.8,237.3,207.8,237.4,207.8z"/>
<g class="st13">
	<path class="st14" d="M191.7,180.2c0,0.7,0.6,1.3,1.3,1.3s1.3-0.6,1.3-1.3s-0.6-1.3-1.3-1.3c-0.3,0-0.7,0.1-0.9,0.4
		C191.8,179.5,191.7,179.9,191.7,180.2z"/>
</g>
<g class="st13">
	<path class="st14" d="M190.8,206c0,0.5,0.3,1,0.8,1.2s1.1,0.1,1.4-0.3c0.4-0.4,0.5-0.9,0.3-1.4s-0.7-0.8-1.2-0.8
		C191.4,204.7,190.8,205.3,190.8,206z"/>
</g>
<g class="st13">
	<path class="st14" d="M188.2,260.9c0,0.5,0.3,1,0.8,1.2s1.1,0.1,1.4-0.3c0.4-0.4,0.5-0.9,0.3-1.4s-0.7-0.8-1.2-0.8
		C188.7,259.6,188.2,260.2,188.2,260.9z"/>
</g>
<g class="st13">
	<path class="st14" d="M189.5,298.2c0,0.5,0.3,1,0.8,1.2s1.1,0.1,1.4-0.3c0.4-0.4,0.5-0.9,0.3-1.4s-0.7-0.8-1.2-0.8
		C190.1,296.9,189.5,297.5,189.5,298.2z"/>
</g>
<g class="st13">
	<path class="st14" d="M199,151.9l-17.1-8.7l7.4-2.3L199,151.9z"/>
</g>
<path class="st17" d="M193.8,224.7c1.2-19.9,2.6-47.5,2.2-54.2c-0.5-9.4-7.1-28.8-7.1-28.9c-0.1-0.1,0-0.3,0.1-0.4
	c0.1-0.1,0.3-0.2,0.4-0.1c0.1,0,0.3,0.1,0.3,0.3c0.1,0.2,6.6,19.6,7.2,29.2c0.4,6.8-0.9,34.3-2.2,54.2L193.8,224.7z"/>
<path class="st17" d="M193,248.2c-0.2,8.4,0.4,24.1,1,39.3c0.7,18.1,1.4,36.8,0.8,43.3c0,0.2-0.2,0.4-0.4,0.4l0,0
	c-0.2,0-0.4-0.2-0.4-0.5c0.6-6.5-0.1-25.1-0.8-43.2c-0.6-15.1-1.1-30.6-1-39.2C192.4,248.3,192.7,248.2,193,248.2z"/>
<g class="st13">
	<path class="st14" d="M124.3,222.4c1.4-2.7,3.3-6.4,6.9-13.3c0.3-0.6,0.6-1.2,0.9-1.8c0.3-0.6,0.6-1.2,0.9-1.8
		c3.1-5.9,6.5-12.2,10.1-18.7c1.3,13.4,0.8,26.9-1.2,40.2l-17.5,0.8C124.3,225.9,124.3,224.1,124.3,222.4z"/>
</g>
<g class="st13">
	<path class="st14" d="M125.8,261.3c2.9-0.4,5.8-0.8,8.8-1.2c-1.9,23.1,9.6,39.9,19.4,50.2c10.1,10.7,31.1,13.2,46.1,20.6
		c-28.8,1.6-81.9-7.4-81.9-7.4s-1.2-13.9,5.1-34.1C125.5,282.4,126.1,272.9,125.8,261.3z"/>
</g>
<g class="st13">
	<path class="st14" d="M183.8,151.9l-36.2-14.2l13.8-3.1L183.8,151.9z"/>
</g>
<g class="st13">
	<path class="st14" d="M234.3,249.2c0.1-5.8,0.8-15.7,1.8-26.9c0.4-4.3,0.8-8.8,1.1-13.4c1.1,2,2,4.2,2.7,6.3
		c5.4,16.9-0.2,27,0.1,35.9c0.2,7,15,17.2,8.1,26.7c-3.6-3.8-5.8-6.5-5.8-6.5c-2.8-3.5-5.3-7.1-7.7-10.7
		C234.4,256.8,234.3,252.9,234.3,249.2z"/>
</g>
<g class="st13">
	<path class="st16" d="M270.3,243.5c1.8-0.9,21.3-11.4,28.9-18.3c4.2-3.8,3.6-8.6,1.6-10.4l-32.4,19.9c-0.7,0.5-1.7,0.5-2.5,0.1
		s-1.3-1.1-1.4-2c-1.1-11-2.8-21.9-5.1-32.7c-2.8,1.2-5.9,4-5.1,11.8c0.9,8.6,1,25,4.4,30.4C259.6,243.7,263.8,246.7,270.3,243.5z"
		/>
</g>
<path class="st17" d="M264.8,250.5c0.1,0,0.3-0.1,0.4-0.2c0.1-0.1,0.1-0.3,0-0.4c-3.3-6.3-0.5-12.8-0.5-12.9c0.1-0.1,0-0.3,0-0.4
	s-0.2-0.2-0.4-0.2c-0.2,0-0.3,0.1-0.3,0.3c-0.1,0.3-2.9,6.9,0.5,13.6C264.5,250.4,264.6,250.5,264.8,250.5z"/>
<g class="st13">
	<path class="st16" d="M242.8,159.3c0,0-9.5-7.1-19.4-9.5c-6.5-1.6-12.8-3.8-19-6.6l2.9-5.8c0,0,21.5,9.5,27.5,14.2
		C237.7,153.9,240.4,156.5,242.8,159.3"/>
</g>
<path class="st17" d="M132.9,202.7c0.1,0,0.2,0,0.2-0.1c12.1-8.3,12.1-26.5,12.1-26.7s-0.2-0.4-0.4-0.4l0,0c-0.2,0-0.4,0.2-0.4,0.4
	s0,17.9-11.7,26c-0.2,0.1-0.2,0.3-0.2,0.5C132.5,202.6,132.7,202.7,132.9,202.7z"/>
<path class="st17" d="M159.2,226.7L159.2,226.7l44.6-2.1c0.1,0,0.2-0.1,0.3-0.1c0.1-0.1,0.1-0.2,0.1-0.3s-0.1-0.2-0.1-0.3
	c-0.1-0.1-0.2-0.1-0.3-0.1l-44.6,2.1c-0.2,0-0.4,0.2-0.4,0.4C158.8,226.5,158.9,226.7,159.2,226.7L159.2,226.7z"/>
<path class="st17" d="M157.6,256.4C157.7,256.4,157.7,256.4,157.6,256.4l49.5-11.6c0.2-0.1,0.4-0.3,0.3-0.5
	c-0.1-0.2-0.3-0.4-0.5-0.3l-49.4,11.6c-0.2,0-0.3,0.2-0.3,0.5C157.2,256.3,157.4,256.4,157.6,256.4z"/>
<path class="st17" d="M111.4,236.5c0.2,0,0.4-0.1,0.4-0.4c0-0.3,1.2-6.8,8.9-7c0.2,0,0.4-0.2,0.4-0.4s-0.2-0.4-0.4-0.4
	c-8.4,0.2-9.7,7.6-9.7,7.7c0,0.1,0,0.2,0.1,0.3C111.1,236.4,111.2,236.5,111.4,236.5C111.3,236.5,111.4,236.5,111.4,236.5z"/>
<g class="st13">
	<path class="st16" d="M140.3,233.9c9.6-1.2,11.8-4.3,11.8-7.3l-30.6,1.4c2.2-4.5,12.2-23.7,12.5-24.3c-2.9-0.9-6.6,1.6-9.7,6.5
		c-3.6,5.7-13.7,19.4-9.6,23.3C117.1,235.8,134.8,234.6,140.3,233.9z"/>
</g>
<path class="st31" d="M341.6,179.5c0.3-3.7-0.9-8.9-1.7-12.5c-0.5-2.1-0.9-3.7-0.7-4.1c0.4-1.1,6.4-0.6,7.8,3.5
	c0.2,0.5,0.3,0.9,0.4,1.4l-4.5,21.8c-0.1,0.6,0,1.3,0.4,1.8s0.9,0.9,1.5,1l20,4c-2.6,3.1-5.8,6.3-9.4,7.6c-2.7,1-5.7,3.1-8.1,5.1
	c-6.5-2.8-9.9-8.8-10.7-16.1c1.7-1.7,3.2-3.4,3.5-4.1C340.9,185.8,341.4,182.7,341.6,179.5z M371.7,175.5c-1.1,0.1-2.1-0.4-2.7-1.3
	c-0.6-0.9-0.7-2-0.2-2.9s1.4-1.5,2.5-1.6l3.6-0.2c0.7,0,1.4,0.2,1.9,0.7s0.7,1.2,0.7,1.9l-0.1,0.8c-0.1,1.1-1,2-2.1,2.1L371.7,175.5
	z M371.5,177.3c-1.4-0.1-2.7,0.7-3.1,2c-0.3,0.9-0.1,1.9,0.5,2.7s1.5,1.2,2.5,1.2h2.8c1,0,1.8-0.7,2.1-1.7l0.3-1.3
	c0.1-0.6,0-1.2-0.4-1.7s-0.9-0.8-1.5-0.9L371.5,177.3z M369.9,186l2.6,0.3c0.5,0.1,1,0.4,1.3,0.8c0.3,0.5,0.3,1,0.1,1.5l-0.5,1.3
	c-0.3,0.7-1,1.2-1.8,1.1l-2.6-0.2c-0.9-0.1-1.7-0.8-2-1.6c-0.3-0.9-0.1-1.8,0.5-2.5C368.1,186.1,369,185.8,369.9,186z M205.2,225.7
	l-2.1,0.8c-2.7,5.8-0.7,12.5,2.7,16.3l6-1c0,0,23,1,27.1-1.2c4.1-2.3,1.6-4.5,1.6-4.5s6.7-2.2,3.8-5.9c0,0,5.9-1.3,3.9-6.1
	c0,0,19.8-1.6,18.8-5.2c-0.9-3.6-39.7-0.7-39.7-0.7s12.4-12.4,7.9-16.2c-4.9,4.7-10.6,8.6-16.8,11.5
	C208.2,218.3,205.2,225.7,205.2,225.7z"/>
<path class="st14" d="M239.5,223.8c0-0.1,0-0.2,0.1-0.3s0.2-0.1,0.3-0.1h7.3c0.2,0,0.4,0.2,0.4,0.4s-0.2,0.4-0.4,0.4h-7.3
	c-0.1,0-0.2,0-0.3-0.1C239.6,224.1,239.5,224,239.5,223.8z"/>
<path class="st14" d="M233.3,230.1c0-0.1,0-0.2,0.1-0.3s0.2-0.1,0.3-0.1h9.6c0.2,0,0.4,0.2,0.4,0.4s-0.2,0.4-0.4,0.4h-9.6
	c-0.1,0-0.2,0-0.3-0.1C233.4,230.3,233.3,230.2,233.3,230.1z"/>
<path class="st14" d="M232.9,235.5h6.5c0.2,0,0.4,0.2,0.4,0.4s-0.2,0.4-0.4,0.4h-6.5c-0.2,0-0.4-0.2-0.4-0.4
	S232.7,235.5,232.9,235.5z"/>
<path class="st16" d="M517.1,118.5c-1.9-8.4,3.1-16.8,11.4-19.1c-8.4,1.9-16.8-3.1-19.1-11.4c1.9,8.4-3.1,16.8-11.4,19.1
	C506.4,105.2,514.8,110.2,517.1,118.5z"/>
<path class="st16" d="M84.3,164.1c2.5-6,9.2-8.9,15.3-6.7c-6-2.5-8.9-9.2-6.7-15.3c-2.5,6-9.2,8.9-15.3,6.8
	C83.5,151.3,86.4,158,84.3,164.1z"/>
<path class="st16" d="M151,26.5c-1.7-6.2,1.8-12.7,7.9-14.7c-6.2,1.7-12.7-1.8-14.7-7.9c1.7,6.2-1.8,12.7-7.9,14.7
	C142.6,16.9,149,20.4,151,26.5z"/>
<path class="st32" d="M369.2,103.3c-1.4-5.2,1.5-10.6,6.6-12.3c-5.2,1.4-10.6-1.5-12.3-6.6c1.4,5.2-1.5,10.6-6.6,12.3
	C362.1,95.3,367.5,98.2,369.2,103.3z"/>
<path class="st16" d="M354.5,289.9c1.7-6.2-1.8-12.7-7.9-14.7c6.2,1.7,12.7-1.8,14.7-7.9c-1.7,6.2,1.8,12.7,7.9,14.7
	C362.9,280.3,356.5,283.8,354.5,289.9z"/>
<path class="st32" d="M285.6,208.7c1.4-5.2-1.5-10.6-6.6-12.3c5.2,1.4,10.6-1.5,12.3-6.6c-1.4,5.2,1.5,10.6,6.6,12.3
	C292.7,200.7,287.3,203.6,285.6,208.7z"/>
</svg>
