<svg width="15" height="21" viewBox="0 0 15 21" fill="none" xmlns="http://www.w3.org/2000/svg">
<path d="M7.49996 15.5834C7.01373 15.5834 6.54741 15.3902 6.2036 15.0464C5.85978 14.7026 5.66663 14.2363 5.66663 13.75C5.66663 12.7325 6.48246 11.9167 7.49996 11.9167C7.98619 11.9167 8.45251 12.1098 8.79632 12.4537C9.14014 12.7975 9.33329 13.2638 9.33329 13.75C9.33329 14.2363 9.14014 14.7026 8.79632 15.0464C8.45251 15.3902 7.98619 15.5834 7.49996 15.5834ZM13 18.3334V9.16669H1.99996V18.3334H13ZM13 7.33335C13.4862 7.33335 13.9525 7.52651 14.2963 7.87033C14.6401 8.21414 14.8333 8.68046 14.8333 9.16669V18.3334C14.8333 18.8196 14.6401 19.2859 14.2963 19.6297C13.9525 19.9735 13.4862 20.1667 13 20.1667H1.99996C1.51373 20.1667 1.04741 19.9735 0.703597 19.6297C0.35978 19.2859 0.166626 18.8196 0.166626 18.3334V9.16669C0.166626 8.14919 0.982459 7.33335 1.99996 7.33335H2.91663V5.50002C2.91663 4.28444 3.39951 3.11866 4.25905 2.25911C5.1186 1.39957 6.28438 0.916687 7.49996 0.916687C8.10185 0.916687 8.69785 1.03524 9.25393 1.26557C9.81 1.49591 10.3153 1.83351 10.7409 2.25911C11.1665 2.68472 11.5041 3.18998 11.7344 3.74605C11.9647 4.30213 12.0833 4.89813 12.0833 5.50002V7.33335H13ZM7.49996 2.75002C6.77061 2.75002 6.07114 3.03975 5.55542 3.55548C5.03969 4.0712 4.74996 4.77068 4.74996 5.50002V7.33335H10.25V5.50002C10.25 4.77068 9.96023 4.0712 9.4445 3.55548C8.92878 3.03975 8.22931 2.75002 7.49996 2.75002Z" fill="#818896"/>
</svg>
