<svg width="186" height="112" viewBox="0 0 186 112" fill="none" xmlns="http://www.w3.org/2000/svg">
<rect x="14.3818" y="3.76367" width="83.7455" height="15.3818" rx="7.69091" fill="#AFD9FF"/>
<rect x="0.708984" y="19.1455" width="83.7455" height="18.8" rx="9.4" fill="#AFD9FF"/>
<rect x="14.3818" y="37.9453" width="83.7455" height="20.5091" rx="10.2545" fill="#AFD9FF"/>
<rect x="65.6548" y="49.9092" width="119.636" height="22.2182" rx="11.1091" fill="#AFD9FF"/>
<rect x="74.2002" y="72.1274" width="90.5818" height="17.0909" rx="8.54545" fill="#AFD9FF"/>
<rect x="7.54541" y="75.5454" width="29.0545" height="11.9636" rx="5.98182" fill="#AFD9FF"/>
<rect x="65.6548" y="89.2183" width="119.636" height="18.8" rx="9.4" fill="#AFD9FF"/>
<circle cx="143.418" cy="4.61794" r="4.27273" fill="#2B8FEB"/>
<circle cx="5.83653" cy="97.7638" r="1.70909" fill="#2B8FEB"/>
<circle cx="20.3635" cy="102.036" r="4.27273" fill="#AFD9FF"/>
<circle cx="93.8545" cy="55.8907" r="55.5455" fill="#2B8FEB"/>
<path d="M109.188 42.97C109.422 42.732 109.7 42.5429 110.007 42.4138C110.315 42.2848 110.644 42.2183 110.978 42.2183C111.311 42.2183 111.641 42.2848 111.948 42.4138C112.255 42.5429 112.534 42.732 112.767 42.97C113.745 43.9579 113.758 45.5542 112.801 46.5591L92.5896 70.4522C92.3602 70.7042 92.0817 70.9067 91.7712 71.0474C91.4608 71.1881 91.1249 71.2639 90.7842 71.2703C90.4434 71.2767 90.1049 71.2135 89.7894 71.0846C89.4739 70.9557 89.188 70.7638 88.9493 70.5206L76.6507 58.0579C76.1763 57.5742 75.9106 56.9237 75.9106 56.2463C75.9106 55.5688 76.1763 54.9183 76.6507 54.4346C76.8839 54.1966 77.1624 54.0075 77.4696 53.8784C77.7769 53.7493 78.1068 53.6828 78.4401 53.6828C78.7733 53.6828 79.1033 53.7493 79.4105 53.8784C79.7178 54.0075 79.9962 54.1966 80.2295 54.4346L90.6618 65.0071L109.12 43.0452C109.141 43.0188 109.164 42.9937 109.188 42.97Z" fill="white"/>
</svg>
