<svg width="474" height="242" viewBox="0 0 474 242" fill="none" xmlns="http://www.w3.org/2000/svg">
<rect x="176.844" width="120.312" height="120.312" rx="18" fill="url(#paint0_linear_3_1384)"/>
<path d="M204.557 27.7128L237 14.2742L269.443 27.7128L282.882 60.1562L269.443 92.5997L237 106.038L204.557 92.5997L191.118 60.1562L204.557 27.7128Z" fill="white" stroke="url(#paint1_linear_3_1384)" stroke-width="6.05"/>
<path d="M215.306 38.4621L237.344 29.3337L259.382 38.4621L268.51 60.5L259.382 82.5379L237.344 91.6663L215.306 82.5379L206.177 60.5L215.306 38.4621Z" fill="white" stroke="url(#paint2_linear_3_1384)" stroke-width="5.29375"/>
<path d="M143.038 221.226C136.951 221.226 131.695 219.898 127.268 217.241C122.897 214.53 119.577 210.823 117.308 206.119C115.039 201.416 113.905 196.104 113.905 190.183C113.905 183.377 115.205 177.54 117.806 172.67C120.462 167.801 124.197 164.121 129.011 161.631C133.825 159.141 139.441 157.896 145.86 157.896C151.891 157.896 158.67 158.754 166.195 160.469L165.282 175.907H156.899L154.658 165.283C154.105 164.73 153.053 164.232 151.504 163.789C149.955 163.291 147.935 163.042 145.445 163.042C140.022 163.042 135.762 165.256 132.663 169.682C129.564 174.054 128.015 180.389 128.015 188.689C128.015 196.823 129.343 203.408 131.999 208.443C134.655 213.423 138.694 215.913 144.117 215.913C146.33 215.913 148.405 215.637 150.342 215.083C152.279 214.53 153.745 213.811 154.741 212.925V195.08L145.943 194.25V188.689H171.175V194.25L166.776 194.997V216.992C165.614 217.048 163.511 217.518 160.468 218.403C156.927 219.344 153.883 220.036 151.338 220.479C148.848 220.977 146.081 221.226 143.038 221.226ZM174.009 197.321C174.009 192.12 175.032 187.693 177.08 184.041C179.182 180.389 181.977 177.65 185.463 175.824C188.949 173.943 192.739 173.002 196.834 173.002C203.806 173.002 209.173 175.16 212.936 179.476C216.754 183.737 218.663 189.547 218.663 196.906C218.663 202.163 217.611 206.645 215.509 210.352C213.461 214.004 210.695 216.743 207.209 218.569C203.778 220.34 199.988 221.226 195.838 221.226C188.921 221.226 183.554 219.095 179.736 214.835C175.918 210.518 174.009 204.681 174.009 197.321ZM196.502 215.83C202.754 215.83 205.881 209.799 205.881 197.736C205.881 191.428 205.134 186.642 203.64 183.377C202.146 180.057 199.711 178.398 196.336 178.398C189.917 178.398 186.708 184.429 186.708 196.491C186.708 202.799 187.482 207.613 189.032 210.933C190.636 214.198 193.126 215.83 196.502 215.83ZM223.718 197.321C223.718 192.12 224.742 187.693 226.789 184.041C228.892 180.389 231.686 177.65 235.172 175.824C238.658 173.943 242.448 173.002 246.543 173.002C253.515 173.002 258.882 175.16 262.645 179.476C266.463 183.737 268.372 189.547 268.372 196.906C268.372 202.163 267.321 206.645 265.218 210.352C263.171 214.004 260.404 216.743 256.918 218.569C253.487 220.34 249.697 221.226 245.547 221.226C238.63 221.226 233.263 219.095 229.445 214.835C225.627 210.518 223.718 204.681 223.718 197.321ZM246.211 215.83C252.464 215.83 255.59 209.799 255.59 197.736C255.59 191.428 254.843 186.642 253.349 183.377C251.855 180.057 249.42 178.398 246.045 178.398C239.626 178.398 236.417 184.429 236.417 196.491C236.417 202.799 237.192 207.613 238.741 210.933C240.346 214.198 242.836 215.83 246.211 215.83ZM290.774 221.226C287.343 221.226 284.272 220.423 281.561 218.818C278.85 217.158 276.692 214.613 275.087 211.182C273.482 207.752 272.68 203.463 272.68 198.317C272.68 193.669 273.621 189.436 275.502 185.618C277.439 181.745 280.261 178.674 283.968 176.405C287.675 174.137 292.13 173.002 297.331 173.002C299.434 173.002 301.426 173.224 303.307 173.666V159.639L295.173 158.477V153.912L312.271 152.252H312.52L314.844 153.995V215.249H319.326V219.98C315.342 220.811 312.05 221.226 309.449 221.226C307.678 221.226 306.406 220.921 305.631 220.312C304.912 219.759 304.552 218.625 304.552 216.909V214.585C303.113 216.522 301.149 218.127 298.659 219.399C296.169 220.617 293.541 221.226 290.774 221.226ZM295.09 214.336C296.916 214.336 298.521 213.977 299.904 213.257C301.343 212.483 302.477 211.57 303.307 210.518V180.306C302.92 179.753 302.09 179.283 300.817 178.895C299.6 178.508 298.272 178.314 296.833 178.314C293.292 178.314 290.442 179.864 288.284 182.962C286.181 186.006 285.13 190.903 285.13 197.653C285.13 203.297 286.043 207.503 287.869 210.269C289.695 212.981 292.102 214.336 295.09 214.336ZM332.106 213.506C332.549 214.17 333.545 214.807 335.094 215.415C336.699 215.969 338.303 216.245 339.908 216.245C342.509 216.245 344.445 215.72 345.718 214.668C347.046 213.562 347.71 212.123 347.71 210.352C347.71 208.526 346.908 207.06 345.303 205.953C343.698 204.791 340.987 203.38 337.169 201.72L334.845 200.724C331.027 199.12 328.177 197.183 326.296 194.914C324.415 192.646 323.474 189.713 323.474 186.116C323.474 183.626 324.221 181.413 325.715 179.476C327.209 177.484 329.312 175.935 332.023 174.828C334.734 173.722 337.861 173.168 341.402 173.168C344.003 173.168 346.216 173.334 348.042 173.666C349.923 173.998 351.888 174.441 353.935 174.994C355.042 175.382 355.872 175.603 356.425 175.658V186.531H349.868L347.959 180.223C347.627 179.67 346.88 179.172 345.718 178.729C344.556 178.287 343.228 178.065 341.734 178.065C339.465 178.065 337.639 178.563 336.256 179.559C334.928 180.5 334.264 181.828 334.264 183.543C334.264 185.093 334.734 186.393 335.675 187.444C336.616 188.44 337.639 189.215 338.746 189.768C339.853 190.322 341.9 191.235 344.888 192.507C347.876 193.78 350.338 194.997 352.275 196.159C354.267 197.321 355.899 198.843 357.172 200.724C358.5 202.55 359.164 204.791 359.164 207.447C359.164 211.542 357.559 214.862 354.35 217.407C351.141 219.953 346.52 221.226 340.489 221.226C337.667 221.226 335.122 220.977 332.853 220.479C330.64 219.98 328.067 219.316 325.134 218.486L323.308 217.905V206.949H330.197L332.106 213.506Z" fill="#06122B"/>
<defs>
<linearGradient id="paint0_linear_3_1384" x1="237" y1="0" x2="237" y2="120.312" gradientUnits="userSpaceOnUse">
<stop stop-color="#7DC1FF"/>
<stop offset="1" stop-color="#278CEA"/>
</linearGradient>
<linearGradient id="paint1_linear_3_1384" x1="237" y1="11" x2="237" y2="109.312" gradientUnits="userSpaceOnUse">
<stop stop-color="#7DC1FF"/>
<stop offset="1" stop-color="#278CEA"/>
</linearGradient>
<linearGradient id="paint2_linear_3_1384" x1="237.344" y1="26.4688" x2="237.344" y2="94.5312" gradientUnits="userSpaceOnUse">
<stop stop-color="#7DC1FF"/>
<stop offset="1" stop-color="#278CEA"/>
</linearGradient>
</defs>
</svg>
